<?xml version="1.0" encoding="UTF-8"?><svg id="_图层_1" xmlns="http://www.w3.org/2000/svg" viewBox="0 0 1954.18 660.84"><defs><style>.cls-1{fill-rule:evenodd;}.cls-1,.cls-2{fill:#fbb03b;}</style></defs><path class="cls-1" d="M567.67,166.32l-93.04-69.93-74.3-55.83-3.62-2.72L346.54.14l-.19-.14-57.95,24.69-3.19,1.36-73.06,31.12-15.27,6.51-38.67,16.47-64.26,27.38-53.81,22.92L0,460.87l46.76,35.14,58.36,43.86,44.35,33.34,59.34,44.59,4.15,3.12,53.02,39.85.11.08.18-.07,61.94-26.39,3.8-1.62,81.7-34.8,37.63-16.03,69.44-29.59,51.53-21.95,40.14-330.42-44.78-33.65ZM529.42,481.21l-107.07,45.62-28.29,12.05-57.22,24.37-62.12,26.47-53.12-39.93-50.57-38.01-12.92-9.71-102.71-77.2,30.95-254.81,118.21-50.36,4-1.71,38.66-16.47,30.4-12.95-40.38,332.46,53.12,39.93,62.12-26.47,23.19-190.9,74.3,55.83,79.43,59.71,13.6,10.22-13.59,111.87ZM548.07,327.61l-93.04-69.92-74.3-55.84,12-98.76,74.3,55.83,93.04,69.93-12,98.76Z"/><path d="M757.45,119.76l-14.67,118.63c-1.57,12.31-3.4,33.52-17.81,47.14-12.31,11.78-28.54,12.83-39.02,12.83-9.17,0-18.33-.79-27.76-6.29-6.81-3.93-13.09-10.21-17.55-17.81l27.5-25.14c1.31,3.67,3.67,7.59,6.28,9.95,2.1,1.83,5.5,3.67,10.48,3.67,4.45,0,7.59-1.31,10.21-3.67,4.45-3.93,6.29-10.74,7.33-20.16l14.66-119.15h40.33Z"/><path d="M942.6,138.61c14.93,14.4,24.62,36.4,24.62,62.06s-8.64,51.85-26.97,70.71c-22,22.52-49.49,26.97-72.28,26.97s-45.83-3.93-66.52-24.88c-12.05-12.31-24.62-32.47-24.62-61.02,0-30.64,12.31-54.47,28.81-70.18,22.26-21.21,49.23-26.45,71.75-26.45,33.52,0,53.68,11.78,65.21,22.78ZM834.18,169.77c-10.21,10.74-15.97,25.4-15.97,40.07,0,15.97,6.02,28.54,14.14,36.66,11.78,12.05,25.93,14.66,38.23,14.66s26.19-1.83,39.02-14.93c9.43-9.69,16.24-24.88,16.24-42.95,0-11.26-2.36-25.4-13.88-36.66-11.52-11.26-25.4-13.62-36.14-13.62-17.28,0-31.16,5.76-41.64,16.76Z"/><path d="M1026.66,212.98l-51.06-93.23h46.09l28.54,54.21,41.64-54.21h49.23l-74.11,93.23-9.95,81.44h-40.33l9.95-81.44Z"/><path d="M1219.14,119.76c12.31,0,31.16.52,45.3,14.66,7.86,7.86,14.14,19.64,14.14,37.45,0,19.38-6.55,36.14-17.02,45.83-7.86,7.33-22.78,15.45-51.85,15.45h-23.04l-7.59,61.28h-40.33l21.47-174.67h58.92ZM1190.6,200.15h14.4c8.64,0,18.59-.79,25.4-7.59,6.02-5.76,6.81-13.62,6.81-18.07,0-4.98-1.05-10.74-5.76-15.19-6.28-6.02-16.76-6.55-22.78-6.55h-12.05l-6.02,47.4Z"/><path d="M1380.98,261.43h-65.99l-16.5,33h-43.47l92.18-174.67h37.19l46.87,174.67h-41.38l-8.9-33ZM1373.65,230.53l-14.14-61.54-29.33,61.54h43.47Z"/><path d="M1511.91,119.76l-17.28,140.62h54.47l-4.19,34.04h-94.8l21.47-174.67h40.33Z"/><path d="M781.25,324.59l-17.28,140.62h54.47l-4.19,34.04h-94.8l21.47-174.67h40.33Z"/><path d="M999.65,343.45c14.93,14.4,24.62,36.4,24.62,62.06s-8.64,51.85-26.97,70.71c-22,22.52-49.49,26.97-72.28,26.97s-45.83-3.93-66.52-24.88c-12.05-12.31-24.62-32.47-24.62-61.02,0-30.64,12.31-54.47,28.81-70.18,22.26-21.21,49.23-26.45,71.75-26.45,33.52,0,53.68,11.78,65.21,22.78ZM891.24,374.61c-10.21,10.74-15.97,25.4-15.97,40.07,0,15.97,6.02,28.54,14.14,36.66,11.78,12.05,25.93,14.67,38.23,14.67s26.19-1.83,39.02-14.93c9.43-9.69,16.24-24.88,16.24-42.95,0-11.26-2.36-25.4-13.88-36.66-11.52-11.26-25.4-13.62-36.14-13.62-17.28,0-31.16,5.76-41.64,16.76Z"/><path d="M1142.11,403.94h81.7c-1.31,43.99-18.33,65.73-26.97,74.63-19.9,20.69-42.68,24.62-64.42,24.62s-45.57-5.24-64.16-24.62c-18.07-18.86-22.26-41.9-22.26-60.49,0-33,12.05-55.52,26.19-70.44,22-23.04,46.88-26.97,71.49-26.97,15.71,0,33.52,2.62,49.23,12.83,11.52,7.59,21.74,19.9,28.28,31.42l-37.19,19.64c-3.14-7.07-8.9-14.93-16.24-19.9-9.17-6.29-19.12-7.33-26.71-7.33-14.14,0-25.92,3.4-36.66,14.67-11.52,12.05-17.02,29.33-17.02,44.52,0,13.36,4.98,28.28,14.4,37.45,11,11,25.14,12.57,35.88,12.57,8.12,0,19.12-1.57,27.76-7.86,6.29-4.45,12.31-12.57,14.93-22.52h-42.16l3.93-32.21Z"/><path d="M1306.83,324.59l-21.47,174.67h-40.33l21.47-174.67h40.33Z"/><path d="M1430.96,367.28c-11-9.95-21.47-12.57-29.33-12.57-4.98,0-12.05.79-16.5,4.45-3.67,2.88-6.02,7.86-6.02,12.57,0,5.24,2.36,8.9,6.02,11.78,3.67,3.14,8.38,5.24,17.02,9.17l10.21,4.71c8.38,3.93,16.24,8.38,23.04,16.76,6.29,7.86,8.9,15.97,8.9,27.23,0,18.33-7.33,34.57-17.54,44.78-14.14,13.88-32.21,17.02-50.02,17.02-12.83,0-23.04-1.57-34.83-7.86-8.64-4.71-17.02-11.78-23.31-18.59l22.52-28.81c3.67,4.98,9.43,10.48,14.67,13.88,5.5,3.4,12.83,5.76,20.43,5.76,6.02,0,14.4-1.83,19.38-5.5,4.71-3.67,7.33-9.69,7.33-16.24s-2.88-9.95-4.98-12.05c-1.31-1.31-4.71-4.19-13.88-7.86l-10.21-4.19c-2.88-1.05-16.24-6.81-24.62-15.45-8.38-8.64-11.52-18.59-11.52-29.59,0-18.07,7.33-31.16,15.71-39.54,14.14-13.88,32.21-16.5,47.14-16.5s32.21,2.88,50.54,17.28l-20.16,29.33Z"/><path d="M1546.97,358.63l-17.28,140.62h-40.33l17.28-140.62h-37.97l4.19-34.04h116.27l-4.19,34.04h-37.97Z"/><path d="M1651.46,324.59l-21.47,174.67h-40.33l21.47-174.67h40.33Z"/><path d="M1799.15,493.76c-5.76,2.88-19.9,9.43-42.42,9.43-33,0-52.11-14.14-61.54-23.31-11.26-11.26-23.57-30.12-23.57-60.49s11.52-55.25,27.76-71.49c14.67-14.67,37.97-27.23,69.92-27.23,26.97,0,43.21,8.9,49.49,12.57l-4.98,42.68c-7.07-7.07-20.43-17.54-43.73-17.54-16.76,0-30.38,4.45-41.38,16.5-10.74,11.52-15.71,27.23-15.71,41.11,0,14.67,5.76,28.02,13.62,35.88,7.86,7.86,20.95,13.62,36.92,13.62,17.28,0,31.16-7.33,40.85-15.19l-5.24,43.47Z"/><path d="M1934.02,367.28c-11-9.95-21.47-12.57-29.33-12.57-4.98,0-12.05.79-16.5,4.45-3.67,2.88-6.02,7.86-6.02,12.57,0,5.24,2.36,8.9,6.02,11.78,3.67,3.14,8.38,5.24,17.02,9.17l10.21,4.71c8.38,3.93,16.24,8.38,23.04,16.76,6.29,7.86,8.9,15.97,8.9,27.23,0,18.33-7.33,34.57-17.54,44.78-14.14,13.88-32.21,17.02-50.02,17.02-12.83,0-23.04-1.57-34.83-7.86-8.64-4.71-17.02-11.78-23.31-18.59l22.52-28.81c3.67,4.98,9.43,10.48,14.67,13.88,5.5,3.4,12.83,5.76,20.43,5.76,6.02,0,14.4-1.83,19.38-5.5,4.71-3.67,7.33-9.69,7.33-16.24s-2.88-9.95-4.98-12.05c-1.31-1.31-4.71-4.19-13.88-7.86l-10.21-4.19c-2.88-1.05-16.24-6.81-24.62-15.45-8.38-8.64-11.52-18.59-11.52-29.59,0-18.07,7.33-31.16,15.71-39.54,14.14-13.88,32.21-16.5,47.14-16.5s32.21,2.88,50.54,17.28l-20.16,29.33Z"/><path class="cls-2" d="M1225.96,626.63c-4.47-3.26-7.06-7.72-7.76-13.38l17.34-10.59c1.01,3.96,2.36,6.73,4.06,8.32,1.7,1.59,3.9,2.39,6.62,2.39,6.44,0,10.36-3.99,11.77-11.98l10.97-62.24h19.43l-11.2,63.52c-1.68,9.54-5.55,16.73-11.6,21.58-6.05,4.85-13.61,7.27-22.69,7.27-6.83,0-12.47-1.63-16.94-4.89Z"/><path class="cls-2" d="M1306.06,625.94c-5.74-3.72-9.72-9.11-11.92-16.17-2.21-7.06-2.45-15.47-.73-25.25,1.72-9.77,4.93-18.19,9.63-25.25,4.69-7.06,10.57-12.45,17.63-16.17,7.06-3.72,14.96-5.58,23.73-5.58s15.9,1.86,21.64,5.58c5.74,3.72,9.72,9.12,11.92,16.17,2.21,7.06,2.45,15.47.73,25.25-1.72,9.77-4.94,18.19-9.63,25.25-4.7,7.06-10.57,12.45-17.63,16.17-7.05,3.72-14.93,5.58-23.61,5.58s-16.02-1.86-21.76-5.58ZM1349.06,605.75c4.97-5.08,8.25-12.16,9.85-21.23,1.6-9.07.81-16.15-2.36-21.23-3.18-5.08-8.29-7.62-15.35-7.62s-13.07,2.52-18.03,7.56c-4.96,5.04-8.25,12.14-9.86,21.29-1.61,9.15-.83,16.25,2.35,21.29,3.18,5.04,8.3,7.56,15.36,7.56s13.07-2.54,18.04-7.62Z"/><path class="cls-2" d="M1409.15,595.22l-23.5-56.08h23.38l12.52,38.51h.7l26.1-38.51h23.5l-43.28,56.08-6.11,34.67h-19.43l6.11-34.67Z"/><path class="cls-2" d="M1516.64,539.14c10.55,0,18.29,2.73,23.22,8.2,4.93,5.47,6.53,13.09,4.81,22.86-1.71,9.7-5.92,17.28-12.62,22.75-6.71,5.47-15.1,8.2-25.18,8.2h-17.68l-5.07,28.74h-19.43l16-90.75h35.95ZM1506.04,583.47c5.27,0,9.53-1.14,12.76-3.43,3.23-2.29,5.23-5.56,5.98-9.83.77-4.34-.08-7.68-2.54-10-2.46-2.33-6.29-3.49-11.48-3.49h-13.73l-4.72,26.76h13.73Z"/><path class="cls-2" d="M1617.45,629.89h-20.59l-3.73-21.06h-32.11l-11.16,21.06h-20.59l50.21-90.75h19.89l18.09,90.75ZM1584.49,564.74l-13.77,25.94h19.08l-4.62-25.94h-.7Z"/><path class="cls-2" d="M1661.72,539.14l-12.88,73.06h42.46l-3.12,17.68h-61.89l16-90.75h19.43Z"/><path class="cls-2" d="M1814.73,544.26c-8.68,40.88-13.87,65-15.55,72.36-1.48,6.21-3.86,10.67-7.13,13.38-3.27,2.71-7.89,4.07-13.86,4.07h-13.26l-.05-14.89h11.17c2.4,0,4.25-.23,5.53-.7,1.28-.46,2.27-1.34,2.96-2.62.69-1.28,1.3-3.2,1.83-5.76.56-2.33,3.76-16.71,9.59-43.16l1.76-8.03h-4.07c-3.02,11.87-6.4,21.99-10.12,30.37s-8.61,16.25-14.63,23.62c-6.03,7.37-13.87,14.85-23.5,22.45l-8.75-11.75c12.34-8.84,22.06-18.36,29.18-28.56,7.11-10.2,12.98-22.24,17.6-36.12h-5.35c-2.17,7.45-4.7,13.98-7.59,19.6-2.89,5.62-6.28,10.74-10.15,15.36-3.88,4.62-8.67,9.44-14.36,14.49l-8.6-10.59,3.93-3.14-5.76,2.33-7.02,39.79h-14.66l5.87-33.27c-7.51,3.02-12.88,5.28-16.08,6.75l-1.04-16.52c1.54-.39,8.25-2.83,20.14-7.33l3.65-20.71h-5.47c-1.69,6.05-3.33,11.21-4.94,15.47l-11.01-2.21c5.35-13.65,9.65-27.46,12.89-41.42l10.33.81-1.17,4.65c-.24.93-.52,2.08-.84,3.43-.32,1.36-.75,2.93-1.3,4.71h4.07l3.67-20.83h14.66l-3.67,20.83h6.17l-1.31,7.45c7.01-8.53,13.02-18.22,18.04-29.08l13.48,3.37c-2.04,4.11-4.11,7.91-6.2,11.4h40.95ZM1744.18,592.08c5.16-4.65,9.66-9.67,13.48-15.07,3.82-5.39,7.09-11.42,9.82-18.09h-3.26c-4.69,6.36-9.57,12.26-14.64,17.68l-8.91-8.84-2.2,12.45,3.87-1.51c.58-.23,1.14-.45,1.68-.64.54-.19,1.02-.41,1.45-.64l-.89,9.66-.42,5ZM1741.04,565.67l-.23,1.28,1.27-1.28h-1.05Z"/><path class="cls-2" d="M1812.92,631.75l20.18-41.18,13.69,4.19-19.61,41.3-14.25-4.3ZM1838.7,586.5l-1.79-1.74c-6.73-6.67-11.34-11.13-13.81-13.38l10.67-12.33c2.59,2.02,7.06,5.93,13.4,11.75l2.83,2.44-11.3,13.26ZM1844.96,556.95c-7.12-7.13-12.14-11.87-15.06-14.19l11.04-12.45c3.4,2.72,7.49,6.32,12.29,10.82l3.21,2.91-11.47,12.91ZM1854.04,585.91h14.19c-1.01,5.74-1.8,10-2.37,12.8-1.16,6.13-2.55,11.25-4.16,15.36-1.62,4.11-3.85,7.97-6.69,11.58-2.85,3.61-6.81,7.5-11.89,11.69l-9.48-10.24c4.07-2.87,7.24-5.53,9.49-7.97,2.25-2.44,4.09-5.49,5.51-9.13,1.42-3.64,2.66-8.49,3.73-14.54l1.68-9.54ZM1851.49,570.67c5.45-3.64,11.65-8.69,18.61-15.12h-14.66l2.54-14.43h27.34l-.97-10.35,18.5-2.68,1.31,13.03h26.76l-2.54,14.43h-20.36c4.59,6.05,10.42,13.5,17.47,22.34l-12.37,10.12c-2.03-3.02-3.86-5.58-5.51-7.68l-54.41,2.44-1.71-12.1ZM1880.75,633.73h-14.54l8.41-47.7h14.54l-8.41,47.7ZM1898.06,567.88c-.9-1.08-1.97-2.48-3.22-4.19l10.98-8.14h-16.87c-5.74,5.28-11.06,9.7-15.95,13.26l25.06-.93ZM1923.09,608.02c-1.87,9.31-3.04,14.82-3.5,16.52-.69,3.02-1.54,5.33-2.56,6.92-1.02,1.59-2.44,2.73-4.27,3.43-1.83.7-4.33,1.05-7.51,1.05h-5.82c-4.5,0-7.51-.83-9.04-2.5-1.53-1.67-1.92-4.6-1.19-8.78l6.83-38.74h14.08l-6.11,34.67c-.26,1.47.5,2.21,2.29,2.21h.47c1.16,0,1.87-.15,2.12-.47.25-.31.53-1.16.86-2.56.81-3.26,1.79-7.75,2.96-13.5l10.4,1.75Z"/></svg>